<svg width="28" height="26" viewBox="0 0 28 26" fill="none" xmlns="http://www.w3.org/2000/svg">
<path d="M15 2.5L14.3256 3.00582C13.4502 3.66237 12.7105 4.48253 12.1475 5.42085L12.0804 5.53269C11.6956 6.17406 11.4078 6.86883 11.2264 7.59443V7.59443C11.076 8.19588 11 8.81349 11 9.43344V11M15 2.5L15.1308 2.43458C15.7085 2.14573 16.3161 1.92096 16.9428 1.76431L17.0299 1.74253C17.6742 1.58145 18.3358 1.5 19 1.5V1.5C19.6642 1.5 20.3258 1.58145 20.9701 1.74253L21.1247 1.78117C21.7065 1.92662 22.2706 2.1353 22.807 2.4035V2.4035C23.5972 2.79858 24.3185 3.31847 24.9432 3.94315L25 4V4C25.6576 4.65763 26.1531 5.45934 26.4472 6.34164L26.5 6.50003L26.7312 7.42465C26.9097 8.13886 27 8.87226 27 9.60844V9.60844C27 10.2014 26.9414 10.7928 26.8252 11.3742L26.7621 11.6896C26.5881 12.5593 26.299 13.402 25.9024 14.1952V14.1952C25.6347 14.7307 25.3193 15.2409 24.9601 15.7198L24.6612 16.1185C24.2209 16.7054 23.7396 17.2604 23.2208 17.7792L22 19L20.7136 20.1026C19.2405 21.3653 17.6637 22.5018 16 23.5V23.5L14.4472 24.2764C14.1657 24.4172 13.8343 24.4172 13.5528 24.2764L13 24L12 23.5L10.5 22.5L9 21.5L6.5 19.5L4.74876 17.7488C3.91938 16.9194 3.19485 15.9914 2.5914 14.9857L2.40703 14.6784C2.13611 14.2269 1.90175 13.7544 1.70618 13.2655V13.2655C1.23968 12.0992 1 10.8546 1 9.59855L1 9.05474C1 8.51972 1.05607 7.98617 1.16728 7.46284L1.19155 7.34863C1.31129 6.78522 1.50265 6.23944 1.76097 5.72462V5.72462C2.08489 5.07906 2.51033 4.48967 3.02105 3.97895L3.25 3.75L3.70978 3.36685C4.3989 2.79258 5.17473 2.33124 6.00837 2V2V2C6.82849 1.66973 7.7044 1.5 8.58852 1.5L9 1.5L9.40042 1.5C10.1287 1.5 10.8522 1.61741 11.5432 1.84771V1.84771C11.8473 1.94911 12.1439 2.07196 12.4307 2.21536L13 2.5L13.75 3L15 2.5Z" stroke="white" stroke-width="1.5"/>
</svg>
